Coordinates
version=1
nRows=8
nColumns=63
inDegrees=yes

Units are S.I. units (second, meters, Newtons, ...)
If the header above contains a line with 'inDegrees', this indicates whether rotational values are in degrees (yes) or radians (no).

endheader
time	pelvis_tilt	pelvis_list	pelvis_rotation	pelvis_tx	pelvis_ty	pelvis_tz	hip_flexion_r	hip_adduction_r	hip_rotation_r	knee_angle_r	knee_angle_r_beta	ankle_angle_r	subtalar_angle_r	mtp_angle_r	hip_flexion_l	hip_adduction_l	hip_rotation_l	knee_angle_l	knee_angle_l_beta	ankle_angle_l	subtalar_angle_l	mtp_angle_l	L5_S1_Flex_Ext	L5_S1_Lat_Bending	L5_S1_axial_rotation	L4_L5_Flex_Ext	L4_L5_Lat_Bending	L4_L5_axial_rotation	L3_L4_Flex_Ext	L3_L4_Lat_Bending	L3_L4_axial_rotation	L2_L3_Flex_Ext	L2_L3_Lat_Bending	L2_L3_axial_rotation	L1_L2_Flex_Ext	L1_L2_Lat_Bending	L1_L2_axial_rotation	L1_T12_Flex_Ext	L1_T12_Lat_Bending	L1_T12_axial_rotation	Abs_r3	Abs_r2	Abs_r1	Abs_t1	Abs_t2	neck_flexion	neck_bending	neck_rotation	arm_flex_r	arm_add_r	arm_rot_r	elbow_flex_r	pro_sup_r	wrist_flex_r	wrist_dev_r	arm_flex_l	arm_add_l	arm_rot_l	elbow_flex_l	pro_sup_l	wrist_flex_l	wrist_dev_l
      2.76666667	      6.01246098	      0.75785542	     94.69312792	      0.16167099	      0.87522309	      0.39036957	     -1.39004682	      2.17798309	    -20.50616027	     14.08898740	      0.24589922	     31.51947984	     18.26709043	      0.00000000	      3.65237754	     -6.38885775	     -8.36793134	     21.28227633	      0.37144579	     26.48593450	     -0.59377501	      0.00000000	     -0.01089220	      0.22611724	      0.31077317	     -0.02022790	      0.30073593	      0.33019649	     -0.01789479	      0.54978146	      0.33019649	     -0.01244869	      0.54978146	      0.27192652	     -0.01011449	      0.46109827	      0.25250320	     -0.00622380	      0.35025560	      0.23307987	     -0.07780188	      2.55788343	      1.72842711	      0.00000000	      0.00000000	     15.79591692	     -1.83796183	    -15.77671262	     -3.64061784	    -17.78029430	     89.95988681	      5.37205119	      9.05316358	     -1.77940772	     -0.84892101	      1.46490600	    -18.35848737	     63.33285036	     16.01495489	     24.92184543	     -5.85855939	     -6.36801980
      2.78333333	      5.81619755	      0.76834258	     94.49201518	      0.16205084	      0.87538138	      0.38983924	     -1.49509028	      1.96584741	    -20.54016538	     14.08696620	      0.24586394	     31.35364845	     18.30272562	      0.00000000	      3.42294888	     -6.19616635	     -8.66480910	     21.01242379	      0.36673598	     26.65734285	     -0.37033982	      0.00000000	     -0.00896769	      0.19653609	      0.33912462	     -0.01665390	      0.26139300	      0.36031991	     -0.01473302	      0.47785785	      0.36031991	     -0.01024918	      0.47785785	      0.29673404	     -0.00832740	      0.40077639	      0.27553875	     -0.00512414	      0.30443440	      0.25434347	     -0.06405533	      2.22325555	      1.88610940	      0.00000000	      0.00000000	     15.73191833	     -1.68236008	    -16.00279052	     -3.69046213	    -17.64180733	     90.07555128	      5.22099345	      9.15286931	     -2.05502627	     -0.94346602	      1.19705359	    -18.58897616	     61.70597396	     16.36467472	     26.39407933	     -6.07559778	     -6.28815834
      2.80000000	      5.67517159	      0.82687417	     94.28382689	      0.16259725	      0.87551617	      0.38927101	     -1.60352386	      1.81863761	    -20.54330771	     14.16671071	      0.24725575	     31.26676722	     18.29223123	      0.00000000	      3.17853547	     -6.10591106	     -9.07940945	     20.84660970	      0.36384198	     26.94311307	     -0.02673491	      0.00000000	     -0.01324066	      0.16891173	      0.36347205	     -0.02458923	      0.22465260	      0.38618906	     -0.02175308	      0.41069197	      0.38618906	     -0.01513275	      0.41069197	      0.31803805	     -0.01229528	      0.34444480	      0.29532104	     -0.00756571	      0.26164427	      0.27260404	     -0.09457671	      1.91076325	      2.02152252	      0.00000000	      0.00000000	     15.55314702	     -1.43861421	    -16.40864896	     -3.64988980	    -17.41428286	     90.13703859	      4.98840644	      9.74925083	     -2.24041899	     -0.73858172	      0.91106069	    -18.83661300	     60.23422276	     16.64892143	     28.09045053	     -6.26871202	     -6.40110509
      2.81666667	      5.49940949	      0.84565941	     93.83651093	      0.16340782	      0.87563973	      0.38874591	     -1.68323163	      1.65150980	    -20.19316974	     14.12948795	      0.24660609	     31.11457220	     18.28069085	      0.00000000	      2.88631439	     -5.99125519	     -9.90071829	     20.57579047	      0.35911529	     27.17583728	      0.44886154	      0.00000000	     -0.01478189	      0.13867332	      0.43848233	     -0.02745146	      0.18443552	      0.46588748	     -0.02428517	      0.33717032	      0.46588748	     -0.01689423	      0.33717032	      0.38367204	     -0.01372647	      0.28278264	      0.35626690	     -0.00844637	      0.21480498	      0.32886175	     -0.10558559	      1.56870037	      2.43870719	      0.00000000	      0.00000000	     15.64631567	     -1.32059539	    -16.78535820	     -3.59328182	    -17.21516759	     89.00647140	      4.91414114	     11.02256007	     -2.23698120	     -0.24359214	      0.65579117	    -18.93470170	     58.61371154	     16.74175701	     29.17902319	     -6.05696352	     -6.61398399
      2.83333333	      5.39302359	      0.88497854	     93.63614550	      0.16378375	      0.87571748	      0.38805970	     -1.77453757	      1.54037989	    -20.16827262	     14.15703155	      0.24708681	     31.12839920	     18.29932283	      0.00000000	      2.64243662	     -5.87654625	    -10.09371151	     20.34064042	      0.35501115	     27.45708586	      0.52968495	      0.00000000	     -0.01326018	      0.11835073	      0.46785721	     -0.02462548	      0.15740647	      0.49709828	     -0.02178515	      0.28775797	      0.49709828	     -0.01515506	      0.28775797	      0.40937506	     -0.01231340	      0.24134081	      0.38013398	     -0.00757687	      0.18332528	      0.35089291	     -0.09471613	      1.33880713	      2.60208143	      0.00000000	      0.00000000	     15.58342669	     -1.09321685	    -17.02964782	     -3.35953648	    -16.96225932	     93.79688424	      4.24752596	     10.04864747	     -2.03612097	      0.35879919	      0.64649901	    -19.03398199	     59.45684311	     16.61651597	     27.75284000	     -5.76966473	     -7.45502045
      2.85000000	      5.25802352	      0.97318542	     93.14267008	      0.16442783	      0.87588940	      0.38725452	     -1.89445359	      1.38154819	    -19.83556398	     14.17418861	      0.24738626	     31.16522478	     18.35614264	      0.00000000	      2.24669569	     -5.70578275	    -10.41834135	     20.01698492	      0.34936229	     27.85508481	      0.54908786	      0.00000000	     -0.01626827	      0.10042076	      0.56391434	     -0.03021181	      0.13355961	      0.59915899	     -0.02672715	      0.24416303	      0.59915899	     -0.01859301	      0.24416303	      0.49342505	     -0.01510672	      0.20477801	      0.45818040	     -0.00929569	      0.15555175	      0.42293576	     -0.11620266	      1.13597970	      3.13632240	      0.00000000	      0.00000000	     15.45060371	     -1.10544277	    -17.23678721	     -3.29303887	    -16.82145777	     93.74109340	      3.95558075	     12.98351579	     -1.96089388	      0.83864564	      0.49774229	    -19.11288970	     58.84458564	     16.69527296	     28.26295594	     -5.65081074	     -8.36590224
      2.86666667	      5.30788578	      1.07566268	     92.57728640	      0.16501078	      0.87607122	      0.38661556	     -1.96271755	      1.39213102	    -19.45470735	     14.25982417	      0.24888088	     31.15954666	     18.34649089	      0.00000000	      1.86551347	     -5.79883078	    -11.21846489	     19.75215024	      0.34474006	     28.61762892	      1.46387514	      0.00000000	     -0.02273649	      0.10847586	      0.67013527	     -0.04222393	      0.14427290	      0.71201872	     -0.03735377	      0.26374822	      0.71201872	     -0.02598553	      0.26374822	      0.58636836	     -0.02111310	      0.22120398	      0.54448491	     -0.01299163	      0.16802911	      0.50260145	     -0.16240445	      1.22710067	      3.72709133	      0.00000000	      0.00000000	     15.42621404	     -1.12806713	    -17.31783329	     -3.03107516	    -16.78101479	    100.56528498	      3.09770908	     13.15680984	     -1.43262611	      1.15263378	      0.83456244	    -19.05596409	     61.67874750	     16.12498246	     25.86255647	     -4.90082451	     -9.84148345
      2.88333333	      5.35322529	      1.22970991	     92.00852546	      0.16527721	      0.87652267	      0.38596834	     -2.13323048	      1.38170416	    -19.04372903	     14.25679515	      0.24882802	     31.07315077	     18.32176086	      0.00000000	      1.40309922	     -5.73880289	    -11.32526860	     19.38246607	      0.33828785	     28.97751204	      1.42387081	      0.00000000	     -0.03113966	      0.12539747	      0.80284435	     -0.05782946	      0.16677863	      0.85302213	     -0.05115934	      0.30489140	      0.85302213	     -0.03558951	      0.30489140	      0.70248881	     -0.02891629	      0.25571051	      0.65231104	     -0.01779320	      0.19424067	      0.60213327	     -0.22242745	      1.41852121	      4.46517945	      0.00000000	      0.00000000	     15.19670859	     -1.26852114	    -17.17575411	     -2.99322643	    -16.87699720	    102.37366368	      2.73197544	     14.92262074	     -1.10210699	      1.36839153	      3.05746486	    -18.47137052	     81.65985470	     12.91685158	     12.75770654	     -3.29353040	    -13.05417525
